<?xml version="1.0" encoding="utf-8"?>
<!-- Generator: Adobe Illustrator 17.0.0, SVG Export Plug-In . SVG Version: 6.00 Build 0)  -->
<!DOCTYPE svg PUBLIC "-//W3C//DTD SVG 1.1//EN" "http://www.w3.org/Graphics/SVG/1.1/DTD/svg11.dtd">
<svg version="1.1" id="Layer_1" xmlns="http://www.w3.org/2000/svg" xmlns:xlink="http://www.w3.org/1999/xlink" x="0px" y="0px"
	 width="192px" height="192px" viewBox="0 0 192 192" enable-background="new 0 0 192 192" xml:space="preserve">
<g>
	<path fill="#FFFFFF" d="M-69.404-212.867h9.983l19.89,51.715h-10.23l-4.046-10.652H-74.91l-4.207,10.652h-10.23L-69.404-212.867z
		 M-64.351-199.156l-6.938,17.754h13.836L-64.351-199.156z"/>
	<path fill="#FFFFFF" d="M-32.341-199.402h4.922v6.855c1.969-2.625,4.148-4.588,6.539-5.889s4.992-1.951,7.805-1.951
		c2.859,0,5.396,0.727,7.611,2.18c2.215,1.454,3.85,3.41,4.904,5.871s1.582,6.293,1.582,11.496v19.688H-3.9v-18.246
		c0-4.406-0.183-7.348-0.548-8.824c-0.57-2.531-1.664-4.435-3.281-5.713c-1.617-1.277-3.728-1.916-6.329-1.916
		c-2.977,0-5.644,0.984-8,2.953c-2.356,1.969-3.909,4.407-4.659,7.312c-0.469,1.898-0.703,5.367-0.703,10.406v14.027h-4.922
		V-199.402z"/>
	<path fill="#FFFFFF" d="M15.858-213.605h4.922v14.203h7.805v4.254H20.78v33.996h-4.922v-33.996H9.143v-4.254h6.715V-213.605z"/>
	<path fill="#FFFFFF" d="M37.672-215.152c1.12,0,2.077,0.399,2.87,1.195c0.793,0.797,1.19,1.758,1.19,2.883
		c0,1.102-0.397,2.051-1.19,2.848c-0.793,0.797-1.75,1.195-2.87,1.195c-1.097,0-2.042-0.398-2.835-1.195
		c-0.793-0.796-1.19-1.746-1.19-2.848c0-1.125,0.396-2.086,1.19-2.883C35.63-214.753,36.575-215.152,37.672-215.152z
		 M35.229-199.402h4.922v38.25h-4.922V-199.402z"/>
	<path fill="#FFFFFF" d="M98.545-204.43l-6.932,6.855c-4.387-4.641-9.5-6.961-15.341-6.961c-5.091,0-9.354,1.688-12.791,5.062
		s-5.155,7.477-5.155,12.305c0,4.992,1.783,9.223,5.349,12.691c3.566,3.469,7.966,5.203,13.198,5.203
		c3.402,0,6.271-0.715,8.605-2.145c2.334-1.429,4.217-3.668,5.648-6.715H76.151v-9.246h26.016l0.07,2.18
		c0,4.523-1.172,8.812-3.516,12.867c-2.344,4.055-5.379,7.149-9.105,9.281s-8.098,3.199-13.113,3.199
		c-5.367,0-10.155-1.166-14.361-3.498c-4.207-2.332-7.536-5.654-9.984-9.967c-2.449-4.312-3.674-8.965-3.674-13.957
		c0-6.843,2.262-12.797,6.785-17.859c5.367-6.023,12.352-9.035,20.953-9.035c4.5,0,8.707,0.832,12.621,2.496
		C92.147-210.266,95.381-207.852,98.545-204.43z"/>
	<path fill="#FFFFFF" d="M110.217-199.402h4.922v17.859c0,4.359,0.234,7.36,0.704,9c0.704,2.344,2.048,4.196,4.032,5.555
		c1.983,1.359,4.348,2.039,7.095,2.039c2.746,0,5.076-0.662,6.988-1.986c1.912-1.324,3.234-3.064,3.961-5.221
		c0.492-1.477,0.74-4.605,0.74-9.387v-17.859h5.027v18.773c0,5.273-0.615,9.246-1.846,11.918s-3.082,4.764-5.555,6.275
		s-5.572,2.268-9.299,2.268c-3.727,0-6.838-0.756-9.334-2.268s-4.359-3.621-5.59-6.328s-1.846-6.779-1.846-12.217V-199.402z"/>
	<path fill="#FFFFFF" d="M152.757-199.402h5.027v5.59c1.5-2.203,3.082-3.85,4.746-4.939s3.398-1.635,5.203-1.635
		c1.359,0,2.812,0.434,4.359,1.301l-2.566,4.148c-1.031-0.445-1.898-0.668-2.602-0.668c-1.641,0-3.223,0.674-4.746,2.021
		c-1.523,1.348-2.684,3.44-3.48,6.275c-0.609,2.18-0.914,6.586-0.914,13.219v12.938h-5.027V-199.402z"/>
	<path fill="#FFFFFF" d="M175.644-199.402h4.922v17.859c0,4.359,0.234,7.36,0.704,9c0.704,2.344,2.048,4.196,4.031,5.555
		c1.983,1.359,4.349,2.039,7.095,2.039s5.076-0.662,6.989-1.986c1.912-1.324,3.233-3.064,3.961-5.221
		c0.492-1.477,0.739-4.605,0.739-9.387v-17.859h5.027v18.773c0,5.273-0.615,9.246-1.846,11.918s-3.082,4.764-5.555,6.275
		s-5.572,2.268-9.299,2.268s-6.838-0.756-9.334-2.268s-4.359-3.621-5.59-6.328s-1.846-6.779-1.846-12.217V-199.402z"/>
</g>
<g>
	<path fill="#00FFFF" d="M42.783,50.638h17.514l34.894,90.724H77.243l-7.099-18.688h-37.02l-7.38,18.688H7.797L42.783,50.638z
		 M51.648,74.691l-12.172,31.146h24.273L51.648,74.691z"/>
	<path fill="#00FFFF" d="M177.777,65.44l-12.16,12.027c-7.697-8.141-16.667-12.212-26.914-12.212c-8.932,0-16.411,2.96-22.44,8.881
		c-6.029,5.921-9.043,13.116-9.043,21.586c0,8.758,3.128,16.18,9.384,22.265c6.257,6.085,13.975,9.128,23.153,9.128
		c5.969,0,11-1.254,15.097-3.762c4.095-2.507,7.398-6.435,9.909-11.78H138.49V95.352h45.64l0.123,3.824
		c0,7.936-2.057,15.46-6.168,22.573c-4.112,7.114-9.436,12.541-15.974,16.282c-6.538,3.741-14.207,5.612-23.005,5.612
		c-9.416,0-17.815-2.046-25.194-6.137c-7.38-4.091-13.22-9.919-17.516-17.485c-4.297-7.565-6.445-15.727-6.445-24.485
		c0-12.005,3.968-22.45,11.903-31.331c9.415-10.567,21.669-15.851,36.758-15.851c7.894,0,15.274,1.46,22.141,4.379
		C166.552,55.202,172.226,59.437,177.777,65.44z"/>
</g>
<text transform="matrix(1 0 0 1 -364.7139 76.5604)"><tspan x="0" y="0" font-family="'CenturyGothic-Bold'" font-size="72">A</tspan><tspan x="53.262" y="0" font-family="'CenturyGothic'" font-size="72">nti</tspan><tspan x="135.984" y="0" font-family="'CenturyGothic-Bold'" font-size="72">G</tspan><tspan x="196.453" y="0" font-family="'CenturyGothic'" font-size="72">uru</tspan></text>
<text transform="matrix(1 0 0 1 -463.6149 -134.4286)" font-family="'CenturyGothic'" font-size="72">AntiGuru</text>
</svg>
